HIERARCHY
ROOT Hips
{
    OFFSET 0.000000 0.000000 0.000000
    CHANNELS 6 Xposition Yposition Zposition Zrotation Xrotation Yrotation
    JOINT Spine
    {
        OFFSET -0.000000 7.573766 0.000000
        CHANNELS 3 Zrotation Xrotation Yrotation
        JOINT Spine1
        {
            OFFSET -0.000000 21.635258 0.000000
            CHANNELS 3 Zrotation Xrotation Yrotation
            JOINT Neck
            {
                OFFSET -0.000000 21.546408 1.958764
                CHANNELS 3 Zrotation Xrotation Yrotation
                JOINT Head
                {
                    OFFSET -0.000000 12.930820 -1.847260
                    CHANNELS 3 Zrotation Xrotation Yrotation
                    End Site
                    {
                        OFFSET -0.000000 23.090748 0.000000
                    }
                }
            }
            JOINT LeftShoulder
            {
                OFFSET 3.708222 19.598145 -0.368577
                CHANNELS 3 Zrotation Xrotation Yrotation
                JOINT LeftArm
                {
                    OFFSET 11.172601 0.000000 0.000000
                    CHANNELS 3 Zrotation Xrotation Yrotation
                    JOINT LeftForeArm
                    {
                        OFFSET 28.642139 0.000000 0.000000
                        CHANNELS 3 Zrotation Xrotation Yrotation
                        JOINT LeftHand
                        {
                            OFFSET 23.934578 0.000000 0.000000
                            CHANNELS 3 Zrotation Xrotation Yrotation
                            End Site
                            {
                                OFFSET 13.854450 0.000000 0.000000
                            }
                        }
                    }
                }
            }
            JOINT RightShoulder
            {
                OFFSET -3.636642 19.598145 -0.368577
                CHANNELS 3 Zrotation Xrotation Yrotation
                JOINT RightArm
                {
                    OFFSET -11.172601 0.000000 0.000000
                    CHANNELS 3 Zrotation Xrotation Yrotation
                    JOINT RightForeArm
                    {
                        OFFSET -28.642139 0.000000 0.000000
                        CHANNELS 3 Zrotation Xrotation Yrotation
                        JOINT RightHand
                        {
                            OFFSET -23.934578 0.000000 0.000000
                            CHANNELS 3 Zrotation Xrotation Yrotation
                            End Site
                            {
                                OFFSET -13.854450 0.000000 0.000000
                            }
                        }
                    }
                }
            }
        }
    }
    JOINT LeftUpLeg
    {
        OFFSET 9.236300 0.000000 0.000000
        CHANNELS 3 Zrotation Xrotation Yrotation
        JOINT LeftLeg
        {
            OFFSET -0.000000 -40.706093 0.000000
            CHANNELS 3 Zrotation Xrotation Yrotation
            JOINT LeftFoot
            {
                OFFSET -0.000000 -40.997513 0.000000
                CHANNELS 3 Zrotation Xrotation Yrotation
                JOINT LeftToeBase
                {
                    OFFSET -0.000000 -6.003594 13.854450
                    CHANNELS 3 Zrotation Xrotation Yrotation
                    End Site
                    {
                        OFFSET -0.000000 0.000000 3.694520
                    }
                }
            }
        }
    }
    JOINT RightUpLeg
    {
        OFFSET -9.236300 0.000000 0.000000
        CHANNELS 3 Zrotation Xrotation Yrotation
        JOINT RightLeg
        {
            OFFSET -0.000000 -40.706093 0.000000
            CHANNELS 3 Zrotation Xrotation Yrotation
            JOINT RightFoot
            {
                OFFSET -0.000000 -40.997513 0.000000
                CHANNELS 3 Zrotation Xrotation Yrotation
                JOINT RightToeBase
                {
                    OFFSET -0.000000 -6.003594 13.854450
                    CHANNELS 3 Zrotation Xrotation Yrotation
                    End Site
                    {
                        OFFSET -0.000000 0.000000 3.694520
                    }
                }
            }
        }
    }
}
MOTION
Frames:    4
Frame Time:    0.004000
-35.643845    82.191093    -189.832626    -0.972630    0.722013    10.663765    -1.692389    -5.734931    -0.166940    0.694367    -6.261859    -0.044947    -4.282104    14.128448    2.821460    5.853843    19.306860    2.860776    16.668900    -0.748119    -10.544923    -20.571627    -0.215795    2.322905    2.441024    -3.119379    1.221571    11.874862    -3.277194    -1.269500    -19.363504    -2.550077    -5.222568    22.149517    -1.318655    8.565037    -0.223763    0.118768    -6.023269    -14.593608    0.780334    -5.256032    0.501612    -1.242159    0.073672    -0.474366    2.391732    2.871428    -0.712110    -8.430953    -15.066761    0.000000    0.000000    0.000000    -1.472891    2.169682    2.280889    3.790528    2.807307    -1.031493    -7.700352    -10.694088    -11.027647    0.000000    0.000000    0.000000    
-35.651836    82.187485    -189.837936    -0.967747    0.654850    10.680148    -1.638807    -5.658525    -0.160127    0.617646    -6.261138    -0.045040    -4.280445    14.153419    2.805637    5.848498    19.217911    2.848192    16.676260    -0.745687    -10.540270    -20.568373    -0.111173    2.303099    2.484227    -3.149634    1.196859    12.017181    -3.305653    -1.238045    -19.348993    -2.529124    -5.217208    22.178728    -1.275493    8.529343    -0.274303    0.130928    -5.971312    -14.505466    0.790965    -5.293923    0.509353    -1.204376    0.030997    -0.472594    2.443228    2.810471    -0.725935    -8.443134    -15.008125    0.000000    0.000000    0.000000    -1.467537    2.126807    2.183236    3.807856    3.024570    -0.941147    -7.669741    -10.786346    -11.065733    0.000000    0.000000    0.000000    
-35.654320    82.185562    -189.843796    -0.960263    0.625690    10.682715    -1.610218    -5.621882    -0.151752    0.572317    -6.260355    -0.042131    -4.287386    14.169045    2.792851    5.848112    19.165585    2.837219    16.668585    -0.731054    -10.540934    -20.545362    -0.083987    2.294199    2.487949    -3.146898    1.174606    12.093531    -3.301598    -1.221601    -19.341211    -2.526449    -5.214249    22.191826    -1.248066    8.502922    -0.288738    0.133694    -5.941869    -14.465747    0.786559    -5.255947    0.502267    -1.192028    0.015334    -0.457348    2.474473    2.688510    -0.691439    -8.480247    -14.899815    0.000000    0.000000    0.000000    -1.473514    2.094663    2.195940    3.829756    3.127449    -1.005632    -7.678732    -10.829990    -11.033450    0.000000    0.000000    0.000000    
-35.657543    82.182381    -189.847641    -0.957595    0.579061    10.690385    -1.573019    -5.566580    -0.150497    0.522620    -6.260544    -0.045524    -4.289164    14.182448    2.790956    5.848771    19.110601    2.837670    16.689684    -0.717520    -10.531528    -20.555471    -0.045615    2.280692    2.496310    -3.157875    1.154626    12.259673    -3.312536    -1.207955    -19.312742    -2.500262    -5.208997    22.192057    -1.244786    8.499451    -0.307840    0.137057    -5.913487    -14.462607    0.796199    -5.317802    0.507893    -1.155523    -0.017956    -0.460277    2.481559    2.845358    -0.665928    -8.504876    -15.034254    0.000000    0.000000    0.000000    -1.469950    2.084193    2.135764    3.840364    3.239938    -0.911254    -7.716654    -10.871907    -11.083566    0.000000    0.000000    0.000000    
